<svg width="146" height="62" viewBox="0 0 146 62" fill="none" xmlns="http://www.w3.org/2000/svg">
<g filter="url(#filter0_d_27_96)">
<path d="M86.2852 42.4971C86.5977 42.5068 86.8711 42.5117 87.1055 42.5117C87.3398 42.502 87.5303 42.4971 87.6768 42.4971H88.1016C88.209 42.4873 88.3408 42.4824 88.4971 42.4824C88.6338 42.4824 88.7998 42.4824 88.9951 42.4824C89.1904 42.4824 89.415 42.4873 89.6689 42.4971C89.7471 42.7705 89.835 43.0391 89.9326 43.3027C90.04 43.5566 90.1328 43.7861 90.2109 43.9912C90.3086 44.2354 90.4062 44.4648 90.5039 44.6797C90.6016 44.8945 90.7188 45.1533 90.8555 45.4561C90.9727 45.71 91.1143 46.0225 91.2803 46.3936C91.4463 46.7549 91.6416 47.1699 91.8662 47.6387C91.9736 47.3359 92.0713 47.0576 92.1592 46.8037C92.2568 46.5498 92.3398 46.3301 92.4082 46.1445C92.4863 45.9297 92.5498 45.7344 92.5986 45.5586C92.6475 45.3828 92.7012 45.168 92.7598 44.9141C92.8086 44.6992 92.8623 44.4404 92.9209 44.1377C92.9893 43.835 93.0576 43.4834 93.126 43.083C93.4092 43.083 93.6631 43.083 93.8877 43.083C94.1123 43.083 94.3076 43.0781 94.4736 43.0684C94.6592 43.0684 94.8252 43.0635 94.9717 43.0537C95.1279 43.0537 95.3379 43.0439 95.6016 43.0244C95.8262 43.0049 96.124 42.9902 96.4951 42.9805C96.876 42.9609 97.3447 42.9365 97.9014 42.9072C97.6963 43.0537 97.5303 43.2002 97.4033 43.3467C97.2861 43.4834 97.1934 43.6055 97.125 43.7129C97.0469 43.8398 96.998 43.9619 96.9785 44.0791C96.959 44.1768 96.9395 44.4014 96.9199 44.7529C96.9102 45.1045 96.8955 45.5244 96.876 46.0127C96.8662 46.4912 96.8564 47.0039 96.8467 47.5508C96.8467 48.0977 96.8516 48.6152 96.8613 49.1035C96.8711 49.5918 96.8857 50.0166 96.9053 50.3779C96.9346 50.7295 96.9736 50.9541 97.0225 51.0518C97.0908 51.1689 97.1836 51.3057 97.3008 51.4619C97.4082 51.5986 97.5449 51.7549 97.7109 51.9307C97.8867 52.1064 98.1162 52.3018 98.3994 52.5166C97.9502 52.5361 97.5742 52.5508 97.2715 52.5605C96.9785 52.5703 96.7344 52.5801 96.5391 52.5898C96.3145 52.5996 96.1338 52.6045 95.9971 52.6045C95.8506 52.6045 95.6504 52.6094 95.3965 52.6191C95.1719 52.6289 94.874 52.6436 94.5029 52.6631C94.1318 52.6729 93.6533 52.6924 93.0674 52.7217C93.2041 52.5654 93.3311 52.4092 93.4482 52.2529C93.5654 52.0967 93.6631 51.9551 93.7412 51.8281C93.8389 51.6816 93.9219 51.54 93.9902 51.4033C94.0586 51.2178 94.1123 50.8809 94.1514 50.3926C94.1904 49.9727 94.2197 49.3721 94.2393 48.5908C94.2588 47.7998 94.2588 46.7402 94.2393 45.4121C94.0537 45.7148 93.8877 46.0176 93.7412 46.3203C93.6045 46.6133 93.4824 46.8818 93.375 47.126C93.2578 47.4092 93.1504 47.6826 93.0527 47.9463C92.9551 48.2197 92.8525 48.5225 92.7451 48.8545C92.6475 49.1377 92.5303 49.4746 92.3936 49.8652C92.2666 50.2559 92.1201 50.6855 91.9541 51.1543L91.3975 51.1836C91.3193 50.793 91.2412 50.4414 91.1631 50.1289C91.085 49.8066 91.0068 49.5332 90.9287 49.3086C90.8408 49.0449 90.7529 48.8105 90.665 48.6055C90.5674 48.4004 90.46 48.1709 90.3428 47.917C90.2354 47.7021 90.1035 47.4482 89.9473 47.1553C89.8008 46.8623 89.6299 46.5352 89.4346 46.1738C89.3369 47.1699 89.2783 47.9805 89.2588 48.6055C89.2393 49.2207 89.2393 49.6992 89.2588 50.041C89.2783 50.4512 89.3076 50.749 89.3467 50.9346C89.4053 51.1006 89.498 51.2861 89.625 51.4912C89.7324 51.667 89.8789 51.877 90.0645 52.1211C90.2598 52.3555 90.5088 52.6191 90.8115 52.9121C90.5967 52.9121 90.3721 52.9121 90.1377 52.9121C89.9033 52.9121 89.6885 52.917 89.4932 52.9268C89.2588 52.9365 89.0293 52.9414 88.8047 52.9414C88.5703 52.9512 88.2969 52.9658 87.9844 52.9854C87.7109 53.0049 87.3838 53.0244 87.0029 53.0439C86.6221 53.0635 86.1826 53.0977 85.6846 53.1465C85.8994 53.0098 86.0752 52.8779 86.2119 52.751C86.3486 52.6143 86.4561 52.4922 86.5342 52.3848C86.6318 52.2578 86.7051 52.1309 86.7539 52.0039C86.7832 51.9258 86.8076 51.7549 86.8271 51.4912C86.8564 51.2275 86.8809 50.9053 86.9004 50.5244C86.9297 50.1436 86.9492 49.7188 86.959 49.25C86.9785 48.7812 86.9932 48.3076 87.0029 47.8291C87.0225 47.3408 87.0371 46.8672 87.0469 46.4082C87.0566 45.9395 87.0615 45.5195 87.0615 45.1484C87.0713 44.7676 87.0762 44.4502 87.0762 44.1963C87.0762 43.9424 87.0762 43.7812 87.0762 43.7129C87.0469 43.5664 87.0029 43.4199 86.9443 43.2734C86.8955 43.1465 86.8174 43.0146 86.71 42.8779C86.6025 42.7412 86.4609 42.6143 86.2852 42.4971ZM97.5791 42.9951C98.2627 43.0146 98.8291 43.0293 99.2783 43.0391C99.7373 43.0391 100.108 43.0391 100.392 43.0391H101.168H105.533C105.553 43.2344 105.567 43.4248 105.577 43.6104C105.597 43.7861 105.606 43.9424 105.606 44.0791C105.606 44.2451 105.602 44.3965 105.592 44.5332C105.582 44.6699 105.567 44.8164 105.548 44.9727C105.528 45.1094 105.509 45.2559 105.489 45.4121C105.47 45.5684 105.436 45.7295 105.387 45.8955C105.25 45.3682 105.064 44.9678 104.83 44.6943C104.605 44.4209 104.376 44.2207 104.142 44.0938C103.868 43.9473 103.58 43.8691 103.277 43.8594C102.877 43.8789 102.564 43.9131 102.34 43.9619C102.115 44.0107 101.939 44.0791 101.812 44.167C101.686 44.2549 101.588 44.3574 101.52 44.4746C101.461 44.582 101.397 44.7041 101.329 44.8408C101.271 44.958 101.217 45.1387 101.168 45.3828C101.119 45.5879 101.07 45.8662 101.021 46.2178C100.982 46.5693 100.938 47.0234 100.89 47.5801C101.153 47.502 101.363 47.4287 101.52 47.3604C101.686 47.292 101.817 47.2334 101.915 47.1846C102.022 47.126 102.101 47.0723 102.149 47.0234C102.188 46.9648 102.247 46.8574 102.325 46.7012C102.384 46.5645 102.462 46.3789 102.56 46.1445C102.667 45.9102 102.794 45.5879 102.94 45.1777C102.96 45.627 102.97 46.0029 102.97 46.3057C102.97 46.5986 102.975 46.8379 102.984 47.0234C102.984 47.2383 102.989 47.4092 102.999 47.5361V48.0928C102.999 48.2979 102.999 48.5762 102.999 48.9277C103.009 49.2695 103.023 49.7041 103.043 50.2314C102.926 49.8701 102.818 49.5869 102.721 49.3818C102.633 49.167 102.555 49.0059 102.486 48.8984C102.408 48.7715 102.34 48.6836 102.281 48.6348C102.213 48.6152 102.12 48.5957 102.003 48.5762C101.896 48.5664 101.759 48.5615 101.593 48.5615C101.437 48.5615 101.236 48.5859 100.992 48.6348C100.963 49.1719 100.958 49.6064 100.978 49.9385C101.007 50.2607 101.046 50.5098 101.095 50.6855C101.144 50.8906 101.202 51.0371 101.271 51.125C101.358 51.2129 101.534 51.2861 101.798 51.3447C102.062 51.3936 102.359 51.4131 102.691 51.4033C103.033 51.3838 103.38 51.3252 103.731 51.2275C104.083 51.1299 104.396 50.9688 104.669 50.7441C104.874 50.5586 105.094 50.3242 105.328 50.041C105.523 49.7969 105.738 49.4893 105.973 49.1182C106.217 48.7471 106.456 48.2979 106.69 47.7705C106.651 48.21 106.622 48.5762 106.603 48.8691C106.593 49.1523 106.578 49.3818 106.559 49.5576C106.539 49.7627 106.524 49.9189 106.515 50.0264C106.515 50.1436 106.5 50.3096 106.471 50.5244C106.451 50.71 106.417 50.9639 106.368 51.2861C106.329 51.5986 106.275 51.999 106.207 52.4873C105.748 52.4971 105.313 52.5068 104.903 52.5166C104.493 52.5166 104.132 52.5215 103.819 52.5312C103.448 52.541 103.106 52.5508 102.794 52.5605C102.472 52.5605 102.115 52.5752 101.725 52.6045C101.383 52.624 100.978 52.6533 100.509 52.6924C100.05 52.7314 99.542 52.7852 98.9854 52.8535C99.0342 52.1895 99.0684 51.5645 99.0879 50.9785C99.1172 50.3828 99.1367 49.8604 99.1465 49.4111C99.1562 48.8838 99.1562 48.3955 99.1465 47.9463C99.1953 46.8232 99.1758 45.915 99.0879 45.2217C99 44.5283 98.8975 44.084 98.7803 43.8887C98.7217 43.8203 98.6387 43.7373 98.5312 43.6396C98.4434 43.5615 98.3213 43.4688 98.165 43.3613C98.0088 43.2539 97.8135 43.1318 97.5791 42.9951ZM106.471 42.6143C106.91 42.6924 107.271 42.7461 107.555 42.7754C107.838 42.8047 108.067 42.8291 108.243 42.8486C108.448 42.8682 108.609 42.873 108.727 42.8633H109.166C109.322 42.8633 109.518 42.8633 109.752 42.8633C109.996 42.8535 110.299 42.8486 110.66 42.8486C110.865 43.3271 111.051 43.7666 111.217 44.167C111.393 44.5674 111.539 44.9092 111.656 45.1924C111.793 45.5342 111.92 45.8418 112.037 46.1152C112.174 46.457 112.32 46.833 112.477 47.2432C112.633 47.6533 112.774 48.0391 112.901 48.4004C113.038 48.7617 113.15 49.0596 113.238 49.2939C113.326 49.5283 113.37 49.6357 113.37 49.6162C113.37 49.6064 113.375 49.5088 113.385 49.3232C113.395 49.1279 113.404 48.8887 113.414 48.6055C113.424 48.3125 113.434 47.9951 113.443 47.6533C113.463 47.3018 113.473 46.9648 113.473 46.6426C113.482 46.3105 113.487 46.0078 113.487 45.7344C113.487 45.4609 113.478 45.2559 113.458 45.1191C113.429 44.9531 113.37 44.7627 113.282 44.5479C113.204 44.3623 113.097 44.1426 112.96 43.8887C112.823 43.625 112.633 43.3271 112.389 42.9951C112.789 43.0049 113.116 43.0098 113.37 43.0098C113.624 43.0098 113.829 43.0098 113.985 43.0098C114.161 43.0098 114.298 43.0049 114.396 42.9951C114.522 42.9951 114.679 42.9854 114.864 42.9658C115.03 42.9463 115.235 42.9316 115.479 42.9219C115.733 42.9023 116.046 42.8779 116.417 42.8486C116.202 43.0439 116.031 43.2295 115.904 43.4053C115.777 43.5811 115.675 43.7373 115.597 43.874C115.509 44.0303 115.45 44.1768 115.421 44.3135C115.382 44.4893 115.348 44.7773 115.318 45.1777C115.299 45.5684 115.274 46.0078 115.245 46.4961C115.226 46.9844 115.206 47.4922 115.187 48.0195C115.167 48.5469 115.147 49.0303 115.128 49.4697C115.128 49.8018 115.118 50.1582 115.099 50.5391C115.079 50.8613 115.06 51.2275 115.04 51.6377C115.021 52.0381 114.996 52.4434 114.967 52.8535L113.663 52.8828C113.282 52.209 112.96 51.6328 112.696 51.1543C112.442 50.666 112.232 50.2656 112.066 49.9531C111.881 49.5918 111.725 49.2891 111.598 49.0449C111.49 48.8105 111.349 48.542 111.173 48.2393C111.026 47.9854 110.841 47.6729 110.616 47.3018C110.401 46.9307 110.143 46.5059 109.84 46.0273C109.811 46.7012 109.796 47.2773 109.796 47.7559C109.806 48.2246 109.82 48.6152 109.84 48.9277C109.869 49.2891 109.903 49.5918 109.942 49.8359C109.991 50.0703 110.06 50.334 110.147 50.627C110.226 50.8809 110.318 51.1787 110.426 51.5205C110.543 51.8623 110.685 52.248 110.851 52.6777C110.274 52.6484 109.845 52.6338 109.562 52.6338H109.122C108.985 52.6338 108.8 52.6484 108.565 52.6777C108.37 52.6973 108.102 52.7266 107.76 52.7656C107.428 52.8047 107.013 52.8584 106.515 52.9268C106.749 52.6436 106.935 52.3848 107.071 52.1504C107.218 51.9062 107.33 51.7012 107.408 51.5352C107.506 51.3398 107.574 51.1689 107.613 51.0225C107.643 50.8662 107.662 50.5977 107.672 50.2168C107.682 49.8262 107.682 49.3867 107.672 48.8984C107.672 48.4004 107.662 47.8779 107.643 47.3311C107.633 46.7842 107.618 46.2764 107.599 45.8076C107.579 45.3389 107.555 44.9385 107.525 44.6064C107.506 44.2744 107.491 44.0693 107.481 43.9912C107.452 43.8643 107.394 43.7275 107.306 43.5811C107.228 43.4541 107.125 43.3125 106.998 43.1562C106.871 42.9902 106.695 42.8096 106.471 42.6143ZM115.904 42.3066C116.559 42.3848 117.125 42.4434 117.604 42.4824C118.082 42.5117 118.478 42.5361 118.79 42.5557C119.151 42.5752 119.454 42.5801 119.698 42.5703C119.952 42.5605 120.299 42.5361 120.738 42.4971C121.109 42.4678 121.598 42.4287 122.203 42.3799C122.809 42.3213 123.565 42.2432 124.474 42.1455C124.483 42.3701 124.488 42.5898 124.488 42.8047C124.498 43.0098 124.508 43.1904 124.518 43.3467C124.527 43.5322 124.532 43.7031 124.532 43.8594C124.532 44.0254 124.522 44.2354 124.503 44.4893C124.483 44.7041 124.449 44.9775 124.4 45.3096C124.361 45.6318 124.298 46.0176 124.21 46.4668C124.073 45.9395 123.941 45.5146 123.814 45.1924C123.688 44.8604 123.57 44.5967 123.463 44.4014C123.346 44.1768 123.229 44.0059 123.111 43.8887C122.984 43.8008 122.833 43.7275 122.657 43.6689C122.501 43.6201 122.301 43.5811 122.057 43.5518C121.822 43.5225 121.544 43.5273 121.222 43.5664C121.173 44.8555 121.139 45.9004 121.119 46.7012C121.1 47.502 121.085 48.127 121.075 48.5762C121.065 49.1133 121.061 49.499 121.061 49.7334C121.07 50.0654 121.124 50.3926 121.222 50.7148C121.3 50.9883 121.427 51.2715 121.603 51.5645C121.778 51.8574 122.032 52.1162 122.364 52.3408H120.577C120.411 52.3408 120.206 52.3506 119.962 52.3701C119.757 52.3896 119.493 52.4092 119.171 52.4287C118.858 52.4482 118.492 52.4824 118.072 52.5312C118.219 52.2773 118.336 52.0479 118.424 51.8428C118.512 51.6377 118.58 51.4619 118.629 51.3154C118.688 51.1396 118.731 50.9834 118.761 50.8467C118.771 50.6514 118.795 50.2559 118.834 49.6602C118.844 49.416 118.854 49.1133 118.863 48.752C118.883 48.3906 118.902 47.9609 118.922 47.4629C118.951 46.9648 118.976 46.3936 118.995 45.749C119.024 45.0947 119.054 44.3574 119.083 43.5371C118.907 43.4883 118.741 43.4932 118.585 43.5518C118.429 43.6006 118.292 43.6641 118.175 43.7422C118.038 43.8398 117.906 43.957 117.779 44.0938C117.652 44.2598 117.511 44.4746 117.354 44.7383C117.218 44.9629 117.062 45.2607 116.886 45.6318C116.71 45.9932 116.51 46.4424 116.285 46.9795C116.236 46.4131 116.202 45.9492 116.183 45.5879C116.163 45.2168 116.148 44.9287 116.139 44.7236C116.129 44.4795 116.124 44.2988 116.124 44.1816C116.124 44.0742 116.114 43.9326 116.095 43.7568C116.075 43.6104 116.051 43.4199 116.021 43.1855C115.992 42.9414 115.953 42.6484 115.904 42.3066ZM125.865 43.083C126.354 43.1123 126.764 43.1367 127.096 43.1562C127.438 43.166 127.721 43.1758 127.945 43.1855C128.199 43.1953 128.414 43.1953 128.59 43.1855C128.766 43.1758 129.005 43.1514 129.308 43.1123C129.562 43.083 129.898 43.0391 130.318 42.9805C130.748 42.9121 131.28 42.8242 131.915 42.7168C131.69 42.9414 131.515 43.1465 131.388 43.332C131.271 43.5078 131.178 43.6592 131.109 43.7861C131.031 43.9424 130.978 44.0742 130.948 44.1816C130.929 44.2793 130.948 44.5234 131.007 44.9141C131.065 45.3047 131.148 45.7686 131.256 46.3057C131.363 46.833 131.48 47.3994 131.607 48.0049C131.734 48.6006 131.861 49.1621 131.988 49.6895C132.115 50.207 132.228 50.6514 132.325 51.0225C132.433 51.3838 132.511 51.5986 132.56 51.667C132.706 51.8721 132.799 52.0088 132.838 52.0771C132.877 52.1357 132.945 52.1895 133.043 52.2383C133.082 52.2578 133.146 52.2871 133.233 52.3262C133.312 52.3652 133.414 52.4141 133.541 52.4727C133.678 52.5312 133.849 52.5996 134.054 52.6777C133.673 52.6973 133.346 52.7119 133.072 52.7217C132.799 52.7217 132.574 52.7266 132.398 52.7363C132.193 52.7461 132.018 52.7559 131.871 52.7656C131.725 52.7656 131.549 52.7754 131.344 52.7949C131.168 52.8145 130.938 52.834 130.655 52.8535C130.382 52.873 130.06 52.8926 129.688 52.9121C129.884 52.7754 130.04 52.6533 130.157 52.5459C130.284 52.4287 130.382 52.3311 130.45 52.2529C130.528 52.1553 130.582 52.0674 130.611 51.9893C130.631 51.9014 130.646 51.7695 130.655 51.5938C130.665 51.4375 130.665 51.2324 130.655 50.9785C130.646 50.7148 130.621 50.373 130.582 49.9531L126.729 50.3486C126.632 50.5146 126.559 50.6611 126.51 50.7881C126.461 50.9053 126.427 51.0078 126.407 51.0957C126.378 51.2031 126.368 51.291 126.378 51.3594C126.397 51.4375 126.432 51.5303 126.48 51.6377C126.529 51.7354 126.598 51.8525 126.686 51.9893C126.783 52.1162 126.925 52.2676 127.11 52.4434C126.866 52.4336 126.617 52.4287 126.363 52.4287C126.109 52.4287 125.875 52.4336 125.66 52.4434C125.406 52.4531 125.157 52.4629 124.913 52.4727C124.669 52.4824 124.391 52.4971 124.078 52.5166C123.814 52.5361 123.507 52.5605 123.155 52.5898C122.794 52.6094 122.408 52.6387 121.998 52.6777C122.252 52.5605 122.467 52.4434 122.643 52.3262C122.818 52.1992 122.965 52.082 123.082 51.9746C123.219 51.8574 123.336 51.7451 123.434 51.6377C123.502 51.54 123.639 51.3154 123.844 50.9639C124.049 50.6025 124.278 50.1777 124.532 49.6895C124.796 49.2012 125.069 48.6787 125.353 48.1221C125.646 47.5654 125.909 47.043 126.144 46.5547C126.378 46.0566 126.568 45.627 126.715 45.2656C126.861 44.9043 126.935 44.6699 126.935 44.5625C126.915 44.4355 126.866 44.2939 126.788 44.1377C126.72 44.001 126.612 43.8447 126.466 43.6689C126.329 43.4932 126.129 43.2979 125.865 43.083ZM130.406 48.8691C130.348 48.5273 130.294 48.2344 130.245 47.9902C130.196 47.7363 130.157 47.5264 130.128 47.3604C130.089 47.165 130.06 46.9941 130.04 46.8477C130.011 46.7109 129.977 46.5352 129.938 46.3203C129.898 46.1348 129.85 45.9053 129.791 45.6318C129.742 45.3486 129.679 45.0117 129.601 44.6211C129.044 45.7344 128.609 46.5986 128.297 47.2139C127.994 47.8193 127.774 48.2637 127.638 48.5469C127.472 48.8789 127.379 49.0742 127.359 49.1328L130.406 48.8691ZM133.585 42.3799C133.868 42.4287 134.117 42.4629 134.332 42.4824C134.557 42.502 134.742 42.5166 134.889 42.5264C135.064 42.5361 135.216 42.541 135.343 42.541C135.47 42.541 135.65 42.5312 135.885 42.5117C136.08 42.4922 136.334 42.4678 136.646 42.4385C136.969 42.4092 137.364 42.3604 137.833 42.292C137.696 42.3311 137.569 42.4434 137.452 42.6289C137.345 42.8047 137.247 42.9951 137.159 43.2002C137.052 43.4443 136.959 43.7129 136.881 44.0059C136.812 44.2695 136.725 44.6309 136.617 45.0898C136.52 45.5488 136.422 46.0469 136.324 46.584C136.236 47.1211 136.168 47.668 136.119 48.2246C136.07 48.7715 136.061 49.2744 136.09 49.7334C136.129 50.1924 136.222 50.5732 136.368 50.876C136.515 51.1689 136.739 51.3252 137.042 51.3447C137.501 51.3838 137.882 51.3887 138.185 51.3594C138.497 51.3203 138.751 51.2666 138.946 51.1982C139.142 51.1299 139.293 51.0518 139.4 50.9639C139.508 50.8662 139.591 50.7734 139.649 50.6855C139.806 50.4609 139.967 50.1729 140.133 49.8213C140.299 49.4697 140.445 49.1328 140.572 48.8105C140.709 48.4883 140.821 48.2148 140.909 47.9902C140.997 47.7656 141.041 47.6582 141.041 47.668C141.041 47.6875 141.036 47.7998 141.026 48.0049C141.026 48.2002 141.021 48.4395 141.012 48.7227C141.012 48.9961 141.007 49.2842 140.997 49.5869C140.997 49.8896 140.992 50.1484 140.982 50.3633C140.973 50.5391 140.963 50.7344 140.953 50.9492C140.943 51.1348 140.934 51.3545 140.924 51.6084C140.924 51.8623 140.914 52.1406 140.895 52.4434C140.484 52.4141 140.094 52.3945 139.723 52.3848C139.352 52.375 139.024 52.3701 138.741 52.3701C138.409 52.3701 138.102 52.375 137.818 52.3848C137.516 52.3945 137.164 52.4092 136.764 52.4287C136.422 52.4482 135.997 52.4727 135.489 52.502C134.981 52.5215 134.396 52.5508 133.731 52.5898C133.81 52.4531 133.873 52.3262 133.922 52.209C133.98 52.0918 134.024 51.9941 134.054 51.916C134.093 51.8184 134.117 51.7354 134.127 51.667C134.186 51.3545 134.234 50.959 134.273 50.4805C134.312 49.9922 134.342 49.4746 134.361 48.9277C134.391 48.3809 134.405 47.8242 134.405 47.2578C134.415 46.6816 134.415 46.1494 134.405 45.6611C134.396 45.1729 134.376 44.748 134.347 44.3867C134.327 44.0254 134.298 43.7764 134.259 43.6396C134.21 43.4834 134.151 43.3271 134.083 43.1709C134.024 43.0342 133.951 42.8975 133.863 42.7607C133.785 42.6143 133.692 42.4873 133.585 42.3799Z" fill="#156B5D"/>
</g>
<g filter="url(#filter1_d_27_96)">
<path d="M18.9141 8.54688C20.3203 8.59896 21.7396 8.85938 23.1719 9.32812C24.6302 9.77083 25.9714 10.5 27.1953 11.5156C28.4193 12.5052 29.4609 13.7943 30.3203 15.3828C31.1797 16.9453 31.7135 18.8594 31.9219 21.125C32.1042 22.974 31.8698 24.8099 31.2188 26.6328C30.5938 28.4297 29.7214 30.0833 28.6016 31.5938C27.4818 33.1042 26.1927 34.3932 24.7344 35.4609C23.276 36.5026 21.8177 37.1927 20.3594 37.5312C19.474 37.7396 18.4974 37.7656 17.4297 37.6094C16.388 37.4271 15.3203 37.1016 14.2266 36.6328C13.1589 36.138 12.1042 35.513 11.0625 34.7578C10.0469 34.0026 9.1224 33.1432 8.28906 32.1797C7.45573 31.1901 6.7526 30.1224 6.17969 28.9766C5.63281 27.8307 5.29427 26.6328 5.16406 25.3828C5.03385 24.3411 5.02083 23.1953 5.125 21.9453C5.25521 20.6693 5.5026 19.4062 5.86719 18.1562C6.25781 16.8802 6.79167 15.6562 7.46875 14.4844C8.17188 13.2865 9.05729 12.2448 10.125 11.3594C11.1927 10.4479 12.4427 9.74479 13.875 9.25C15.3333 8.72917 17.013 8.49479 18.9141 8.54688ZM11.9219 24.3672C11.5573 27.1536 11.8177 29.3932 12.7031 31.0859C13.6146 32.7786 14.9818 33.8073 16.8047 34.1719C17.6901 34.3542 18.5365 34.1719 19.3438 33.625C20.1771 33.0521 20.9323 32.2318 21.6094 31.1641C22.2865 30.0964 22.8724 28.8464 23.3672 27.4141C23.862 25.9818 24.2266 24.4844 24.4609 22.9219C24.6953 21.3594 24.7083 19.9531 24.5 18.7031C24.3177 17.4271 23.9922 16.3464 23.5234 15.4609C23.0547 14.5495 22.4818 13.8464 21.8047 13.3516C21.1536 12.8568 20.4766 12.5833 19.7734 12.5312C18.5495 12.4531 17.4818 12.7786 16.5703 13.5078C15.6589 14.2109 14.8906 15.1354 14.2656 16.2812C13.6406 17.4271 13.1328 18.7161 12.7422 20.1484C12.3776 21.5807 12.1042 22.987 11.9219 24.3672ZM37.5078 11.5547C38.8099 11.6328 39.9036 11.6979 40.7891 11.75C41.7005 11.776 42.4557 11.8021 43.0547 11.8281C43.7318 11.8542 44.3047 11.8542 44.7734 11.8281C45.2422 11.8021 45.8802 11.737 46.6875 11.6328C47.3646 11.5547 48.263 11.4375 49.3828 11.2812C50.5286 11.099 51.9479 10.8646 53.6406 10.5781C53.0417 11.1771 52.5729 11.724 52.2344 12.2188C51.9219 12.6875 51.6745 13.0911 51.4922 13.4297C51.2839 13.8464 51.1406 14.1979 51.0625 14.4844C51.0104 14.7448 51.0625 15.3958 51.2188 16.4375C51.375 17.4792 51.5964 18.7161 51.8828 20.1484C52.1693 21.5547 52.4818 23.0651 52.8203 24.6797C53.1589 26.2682 53.4974 27.7656 53.8359 29.1719C54.1745 30.5521 54.474 31.737 54.7344 32.7266C55.0208 33.6901 55.2292 34.263 55.3594 34.4453C55.75 34.9922 55.9974 35.3568 56.1016 35.5391C56.2057 35.6953 56.388 35.8385 56.6484 35.9688C56.7526 36.0208 56.9219 36.099 57.1562 36.2031C57.3646 36.3073 57.638 36.4375 57.9766 36.5938C58.3411 36.75 58.7969 36.9323 59.3438 37.1406C58.3281 37.1927 57.4557 37.2318 56.7266 37.2578C55.9974 37.2578 55.3984 37.2708 54.9297 37.2969C54.3828 37.3229 53.9141 37.349 53.5234 37.375C53.1328 37.375 52.6641 37.401 52.1172 37.4531C51.6484 37.5052 51.0365 37.5573 50.2812 37.6094C49.5521 37.6615 48.6927 37.7135 47.7031 37.7656C48.224 37.401 48.6406 37.0755 48.9531 36.7891C49.2917 36.4766 49.5521 36.2161 49.7344 36.0078C49.9427 35.7474 50.0859 35.513 50.1641 35.3047C50.2161 35.0703 50.2552 34.7188 50.2812 34.25C50.3073 33.8333 50.3073 33.2865 50.2812 32.6094C50.2552 31.9062 50.1901 30.9948 50.0859 29.875L39.8125 30.9297C39.5521 31.3724 39.3568 31.763 39.2266 32.1016C39.0964 32.4141 39.0052 32.6875 38.9531 32.9219C38.875 33.2083 38.849 33.4427 38.875 33.625C38.9271 33.8333 39.0182 34.0807 39.1484 34.3672C39.2786 34.6276 39.4609 34.9401 39.6953 35.3047C39.9557 35.6432 40.3333 36.0469 40.8281 36.5156C40.1771 36.4896 39.513 36.4766 38.8359 36.4766C38.1589 36.4766 37.5339 36.4896 36.9609 36.5156C36.2839 36.5417 35.6198 36.5677 34.9688 36.5938C34.3177 36.6198 33.5755 36.6589 32.7422 36.7109C32.0391 36.763 31.2188 36.8281 30.2812 36.9062C29.3177 36.9583 28.2891 37.0365 27.1953 37.1406C27.8724 36.8281 28.4453 36.5156 28.9141 36.2031C29.3828 35.8646 29.7734 35.5521 30.0859 35.2656C30.4505 34.9531 30.763 34.6536 31.0234 34.3672C31.2057 34.1068 31.5703 33.5078 32.1172 32.5703C32.6641 31.6068 33.276 30.474 33.9531 29.1719C34.6562 27.8698 35.3854 26.4766 36.1406 24.9922C36.9219 23.5078 37.625 22.1146 38.25 20.8125C38.875 19.4844 39.3828 18.3385 39.7734 17.375C40.1641 16.4115 40.3594 15.7865 40.3594 15.5C40.3073 15.1615 40.1771 14.7839 39.9688 14.3672C39.7865 14.0026 39.5 13.5859 39.1094 13.1172C38.7448 12.6484 38.2109 12.1276 37.5078 11.5547ZM49.6172 26.9844C49.4609 26.0729 49.3177 25.2917 49.1875 24.6406C49.0573 23.9635 48.9531 23.4036 48.875 22.9609C48.7708 22.4401 48.6927 21.9844 48.6406 21.5938C48.5625 21.2292 48.4714 20.7604 48.3672 20.1875C48.263 19.6927 48.1328 19.0807 47.9766 18.3516C47.8464 17.5964 47.6771 16.6979 47.4688 15.6562C45.9844 18.625 44.8255 20.9297 43.9922 22.5703C43.1849 24.1849 42.599 25.3698 42.2344 26.125C41.7917 27.0104 41.5443 27.5312 41.4922 27.6875L49.6172 26.9844ZM44.0312 7.92188L48.1719 3.89844L50.125 5.96875L45.0469 9.40625L44.0312 7.92188ZM82.625 9.40625C82.2604 10.2396 81.9349 10.9688 81.6484 11.5938C81.362 12.2188 81.1146 12.7526 80.9062 13.1953C80.6719 13.6901 80.4766 14.1328 80.3203 14.5234C80.1901 14.8099 80.0208 15.2005 79.8125 15.6953C79.6042 16.138 79.3438 16.724 79.0312 17.4531C78.7448 18.1562 78.3672 19.0677 77.8984 20.1875C77.6641 19.224 77.3776 18.3776 77.0391 17.6484C76.7005 16.9193 76.3359 16.2812 75.9453 15.7344C75.5547 15.1875 75.138 14.7448 74.6953 14.4062C74.2786 14.0417 73.862 13.7422 73.4453 13.5078C72.4818 12.987 71.4661 12.7005 70.3984 12.6484C68.9922 12.7266 67.8854 12.9609 67.0781 13.3516C66.2969 13.7161 65.724 14.1458 65.3594 14.6406C64.9948 15.1094 64.7995 15.6042 64.7734 16.125C64.7474 16.6198 64.8125 17.0365 64.9688 17.375C65.099 17.6875 65.5547 18.0521 66.3359 18.4688C67.1432 18.8854 68.1068 19.3672 69.2266 19.9141C70.3724 20.4349 71.5964 21.0339 72.8984 21.7109C74.2005 22.362 75.3984 23.0911 76.4922 23.8984C77.612 24.6797 78.5495 25.5391 79.3047 26.4766C80.0859 27.388 80.5156 28.3646 80.5938 29.4062C80.6719 30.7344 80.6589 31.9323 80.5547 33C80.4505 34.0677 80.0859 34.9792 79.4609 35.7344C78.8359 36.4896 77.8594 37.0885 76.5312 37.5312C75.2292 37.974 73.4193 38.2474 71.1016 38.3516C68.7057 38.4557 66.7396 38.3255 65.2031 37.9609C63.6667 37.5964 62.4167 37.1016 61.4531 36.4766C60.5156 35.8516 59.8125 35.1615 59.3438 34.4062C58.901 33.651 58.5755 32.9349 58.3672 32.2578C58.1589 31.5547 58.0156 30.9557 57.9375 30.4609C57.8594 29.9401 57.7292 29.6276 57.5469 29.5234C57.3385 29.3932 57.1302 29.276 56.9219 29.1719C56.7396 29.0677 56.5443 28.9766 56.3359 28.8984C56.1276 28.7943 55.9193 28.7031 55.7109 28.625L67.0781 26.7891C66.4271 27.3099 65.9193 27.7917 65.5547 28.2344C65.2161 28.6771 64.9557 29.0677 64.7734 29.4062C64.5651 29.7969 64.4219 30.1615 64.3438 30.5C64.2917 30.8646 64.4089 31.3203 64.6953 31.8672C64.9818 32.4141 65.3724 32.9479 65.8672 33.4688C66.388 33.9635 66.987 34.3802 67.6641 34.7188C68.3411 35.0573 69.0443 35.2005 69.7734 35.1484C70.6849 35.0703 71.4271 34.849 72 34.4844C72.5729 34.0938 73.0026 33.612 73.2891 33.0391C73.6016 32.4661 73.7839 31.8411 73.8359 31.1641C73.888 30.487 73.8229 29.8229 73.6406 29.1719C73.4844 28.4948 73.224 27.8698 72.8594 27.2969C72.4948 26.6979 72.0651 26.2031 71.5703 25.8125C71.1276 25.5 70.4375 25.2005 69.5 24.9141C68.5885 24.6276 67.5599 24.3151 66.4141 23.9766C65.2943 23.638 64.1354 23.2474 62.9375 22.8047C61.7656 22.362 60.6979 21.8151 59.7344 21.1641C58.7969 20.513 58.0417 19.7448 57.4688 18.8594C56.9219 17.974 56.7135 16.9062 56.8438 15.6562C56.9479 14.5885 57.2865 13.7031 57.8594 13C58.4583 12.2708 59.2005 11.6979 60.0859 11.2812C60.9974 10.8385 62 10.513 63.0938 10.3047C64.2135 10.0964 65.3464 9.97917 66.4922 9.95312C67.6641 9.90104 68.8099 9.91406 69.9297 9.99219C71.0755 10.0703 72.1042 10.1615 73.0156 10.2656C73.9271 10.3698 74.6953 10.474 75.3203 10.5781C75.9714 10.6562 76.375 10.7083 76.5312 10.7344C77.2083 10.7865 77.8854 10.7734 78.5625 10.6953C79.1615 10.6432 79.8125 10.526 80.5156 10.3438C81.2448 10.1354 81.9479 9.82292 82.625 9.40625ZM82.4297 11.0859C83.3151 11.1901 84.0573 11.2682 84.6562 11.3203C85.2812 11.3464 85.7891 11.3854 86.1797 11.4375C86.6484 11.4896 87.013 11.5156 87.2734 11.5156C87.5599 11.5417 87.9896 11.5286 88.5625 11.4766C89.0573 11.4245 89.7214 11.3594 90.5547 11.2812C91.4141 11.2031 92.5078 11.0859 93.8359 10.9297C93.237 11.4505 92.7552 11.9583 92.3906 12.4531C92.0521 12.9219 91.7917 13.3385 91.6094 13.7031C91.375 14.1458 91.2318 14.5625 91.1797 14.9531C91.0755 15.5781 90.9844 16.4375 90.9062 17.5312C90.8542 18.599 90.8021 19.7708 90.75 21.0469C90.6979 22.3229 90.6719 23.638 90.6719 24.9922C90.6719 26.3464 90.6849 27.6354 90.7109 28.8594C90.763 30.0573 90.8411 31.125 90.9453 32.0625C91.0755 33 91.2318 33.6771 91.4141 34.0938C91.6745 34.5625 91.9479 35.0312 92.2344 35.5C92.4948 35.8906 92.8073 36.2943 93.1719 36.7109C93.5365 37.1276 93.9531 37.4661 94.4219 37.7266C92.8854 37.6484 91.6615 37.6094 90.75 37.6094H89.3438C88.9271 37.6094 88.3932 37.6354 87.7422 37.6875C87.1953 37.7396 86.5052 37.7917 85.6719 37.8438C84.8385 37.8958 83.8359 37.974 82.6641 38.0781C83.263 37.4271 83.7318 36.8021 84.0703 36.2031C84.4089 35.6042 84.6823 35.0833 84.8906 34.6406C85.125 34.1198 85.2812 33.625 85.3594 33.1562C85.4635 32.4792 85.5417 31.6458 85.5938 30.6562C85.6719 29.6406 85.724 28.5599 85.75 27.4141C85.776 26.2422 85.776 25.0573 85.75 23.8594C85.75 22.6354 85.724 21.4635 85.6719 20.3438C85.6198 19.224 85.5417 18.2083 85.4375 17.2969C85.3594 16.3854 85.2552 15.6562 85.125 15.1094C85.0469 14.7708 84.8906 14.3932 84.6562 13.9766C84.4479 13.612 84.1615 13.1953 83.7969 12.7266C83.4583 12.2318 83.0026 11.6849 82.4297 11.0859ZM119.93 9.40625C119.565 10.2396 119.24 10.9688 118.953 11.5938C118.667 12.2188 118.419 12.7526 118.211 13.1953C117.977 13.6901 117.781 14.1328 117.625 14.5234C117.495 14.8099 117.326 15.2005 117.117 15.6953C116.909 16.138 116.648 16.724 116.336 17.4531C116.049 18.1562 115.672 19.0677 115.203 20.1875C114.969 19.224 114.682 18.3776 114.344 17.6484C114.005 16.9193 113.641 16.2812 113.25 15.7344C112.859 15.1875 112.443 14.7448 112 14.4062C111.583 14.0417 111.167 13.7422 110.75 13.5078C109.786 12.987 108.771 12.7005 107.703 12.6484C106.297 12.7266 105.19 12.9609 104.383 13.3516C103.602 13.7161 103.029 14.1458 102.664 14.6406C102.299 15.1094 102.104 15.6042 102.078 16.125C102.052 16.6198 102.117 17.0365 102.273 17.375C102.404 17.6875 102.859 18.0521 103.641 18.4688C104.448 18.8854 105.411 19.3672 106.531 19.9141C107.677 20.4349 108.901 21.0339 110.203 21.7109C111.505 22.362 112.703 23.0911 113.797 23.8984C114.917 24.6797 115.854 25.5391 116.609 26.4766C117.391 27.388 117.82 28.3646 117.898 29.4062C117.977 30.7344 117.964 31.9323 117.859 33C117.755 34.0677 117.391 34.9792 116.766 35.7344C116.141 36.4896 115.164 37.0885 113.836 37.5312C112.534 37.974 110.724 38.2474 108.406 38.3516C106.01 38.4557 104.044 38.3255 102.508 37.9609C100.971 37.5964 99.7214 37.1016 98.7578 36.4766C97.8203 35.8516 97.1172 35.1615 96.6484 34.4062C96.2057 33.651 95.8802 32.9349 95.6719 32.2578C95.4635 31.5547 95.3203 30.9557 95.2422 30.4609C95.1641 29.9401 95.0339 29.6276 94.8516 29.5234C94.6432 29.3932 94.4349 29.276 94.2266 29.1719C94.0443 29.0677 93.849 28.9766 93.6406 28.8984C93.4323 28.7943 93.224 28.7031 93.0156 28.625L104.383 26.7891C103.732 27.3099 103.224 27.7917 102.859 28.2344C102.521 28.6771 102.26 29.0677 102.078 29.4062C101.87 29.7969 101.727 30.1615 101.648 30.5C101.596 30.8646 101.714 31.3203 102 31.8672C102.286 32.4141 102.677 32.9479 103.172 33.4688C103.693 33.9635 104.292 34.3802 104.969 34.7188C105.646 35.0573 106.349 35.2005 107.078 35.1484C107.99 35.0703 108.732 34.849 109.305 34.4844C109.878 34.0938 110.307 33.612 110.594 33.0391C110.906 32.4661 111.089 31.8411 111.141 31.1641C111.193 30.487 111.128 29.8229 110.945 29.1719C110.789 28.4948 110.529 27.8698 110.164 27.2969C109.799 26.6979 109.37 26.2031 108.875 25.8125C108.432 25.5 107.742 25.2005 106.805 24.9141C105.893 24.6276 104.865 24.3151 103.719 23.9766C102.599 23.638 101.44 23.2474 100.242 22.8047C99.0703 22.362 98.0026 21.8151 97.0391 21.1641C96.1016 20.513 95.3464 19.7448 94.7734 18.8594C94.2266 17.974 94.0182 16.9062 94.1484 15.6562C94.2526 14.5885 94.5911 13.7031 95.1641 13C95.763 12.2708 96.5052 11.6979 97.3906 11.2812C98.3021 10.8385 99.3047 10.513 100.398 10.3047C101.518 10.0964 102.651 9.97917 103.797 9.95312C104.969 9.90104 106.115 9.91406 107.234 9.99219C108.38 10.0703 109.409 10.1615 110.32 10.2656C111.232 10.3698 112 10.474 112.625 10.5781C113.276 10.6562 113.68 10.7083 113.836 10.7344C114.513 10.7865 115.19 10.7734 115.867 10.6953C116.466 10.6432 117.117 10.526 117.82 10.3438C118.549 10.1354 119.253 9.82292 119.93 9.40625Z" fill="#156B5D"/>
</g>
<defs>
<filter id="filter0_d_27_96" x="81.6846" y="42.1455" width="63.3564" height="19.001" filterUnits="userSpaceOnUse" color-interpolation-filters="sRGB">
<feFlood flood-opacity="0" result="BackgroundImageFix"/>
<feColorMatrix in="SourceAlpha" type="matrix" values="0 0 0 0 0 0 0 0 0 0 0 0 0 0 0 0 0 0 127 0" result="hardAlpha"/>
<feOffset dy="4"/>
<feGaussianBlur stdDeviation="2"/>
<feComposite in2="hardAlpha" operator="out"/>
<feColorMatrix type="matrix" values="0 0 0 0 0 0 0 0 0 0 0 0 0 0 0 0 0 0 0.25 0"/>
<feBlend mode="normal" in2="BackgroundImageFix" result="effect1_dropShadow_27_96"/>
<feBlend mode="normal" in="SourceGraphic" in2="effect1_dropShadow_27_96" result="shape"/>
</filter>
<filter id="filter1_d_27_96" x="0.96875" y="3.89844" width="122.961" height="42.6094" filterUnits="userSpaceOnUse" color-interpolation-filters="sRGB">
<feFlood flood-opacity="0" result="BackgroundImageFix"/>
<feColorMatrix in="SourceAlpha" type="matrix" values="0 0 0 0 0 0 0 0 0 0 0 0 0 0 0 0 0 0 127 0" result="hardAlpha"/>
<feOffset dy="4"/>
<feGaussianBlur stdDeviation="2"/>
<feComposite in2="hardAlpha" operator="out"/>
<feColorMatrix type="matrix" values="0 0 0 0 0 0 0 0 0 0 0 0 0 0 0 0 0 0 0.25 0"/>
<feBlend mode="normal" in2="BackgroundImageFix" result="effect1_dropShadow_27_96"/>
<feBlend mode="normal" in="SourceGraphic" in2="effect1_dropShadow_27_96" result="shape"/>
</filter>
</defs>
</svg>
